<svg id="visual" viewBox="0 0 960 540" width="960" height="540" xmlns="http://www.w3.org/2000/svg" xmlns:xlink="http://www.w3.org/1999/xlink" version="1.1"><rect x="0" y="0" width="960" height="540" fill="#fff"></rect><path d="M0 94L32 93.5C64 93 128 92 192 84.3C256 76.7 320 62.3 384 59.3C448 56.3 512 64.7 576 64.8C640 65 704 57 768 61C832 65 896 81 928 89L960 97L960 0L928 0C896 0 832 0 768 0C704 0 640 0 576 0C512 0 448 0 384 0C320 0 256 0 192 0C128 0 64 0 32 0L0 0Z" fill="#0b409c"></path><path d="M0 62L32 64C64 66 128 70 192 72.2C256 74.3 320 74.7 384 68.8C448 63 512 51 576 47.5C640 44 704 49 768 52.7C832 56.3 896 58.7 928 59.8L960 61L960 0L928 0C896 0 832 0 768 0C704 0 640 0 576 0C512 0 448 0 384 0C320 0 256 0 192 0C128 0 64 0 32 0L0 0Z" fill="#10316b"></path></svg>